<?xml version="1.0" encoding="UTF-8" standalone="no"?>
<svg
   xmlns:dc="http://purl.org/dc/elements/1.1/"
   xmlns:cc="http://creativecommons.org/ns#"
   xmlns:rdf="http://www.w3.org/1999/02/22-rdf-syntax-ns#"
   xmlns:svg="http://www.w3.org/2000/svg"
   xmlns="http://www.w3.org/2000/svg"
   xmlns:sodipodi="http://sodipodi.sourceforge.net/DTD/sodipodi-0.dtd"
   xmlns:inkscape="http://www.inkscape.org/namespaces/inkscape"
   id="svg8"
   version="1.1"
   viewBox="0 0 204.03299 204.15303"
   height="204.15303mm"
   width="204.03299mm"
   sodipodi:docname="logo.inkscape.svg"
   inkscape:export-filename="/home/rdex/Workspace/github/beefindr/doc/res/logo.png"
   inkscape:export-xdpi="36.290001"
   inkscape:export-ydpi="36.290001"
   inkscape:version="0.92.4 5da689c313, 2019-01-14">
  <sodipodi:namedview
     pagecolor="#ffffff"
     bordercolor="#666666"
     borderopacity="1"
     objecttolerance="10"
     gridtolerance="10"
     guidetolerance="10"
     inkscape:pageopacity="0"
     inkscape:pageshadow="2"
     inkscape:window-width="1783"
     inkscape:window-height="1048"
     id="namedview1064"
     showgrid="false"
     inkscape:zoom="0.61207422"
     inkscape:cx="686.80543"
     inkscape:cy="213.87936"
     inkscape:window-x="0"
     inkscape:window-y="27"
     inkscape:window-maximized="0"
     inkscape:current-layer="svg8" />
  <defs
     id="defs2">
    <filter
       style="color-interpolation-filters:sRGB"
       id="filter4037"
       height="1.2421"
       width="1.0798"
       y="-0.12104"
       x="-0.039886001">
      <feGaussianBlur
         id="feGaussianBlur4039"
         stdDeviation="11.868751" />
    </filter>
    <linearGradient
       id="SVGID_1_-6"
       gradientUnits="userSpaceOnUse"
       x1="166.0096"
       y1="208.7643"
       x2="184.98289"
       y2="208.7643"
       gradientTransform="matrix(1,0,0,-0.9529,0,402.9781)">
      <stop
         offset="0"
         style="stop-color:#FFEE27"
         id="stop4550-7" />
      <stop
         offset="0.1425"
         style="stop-color:#FFE612"
         id="stop4552-5" />
      <stop
         offset="0.4575"
         style="stop-color:#FFD600"
         id="stop4554-3" />
      <stop
         offset="0.7511"
         style="stop-color:#FECC00"
         id="stop4556-5" />
      <stop
         offset="1"
         style="stop-color:#FDC800"
         id="stop4558-6" />
    </linearGradient>
    <linearGradient
       id="SVGID_2_-2"
       gradientUnits="userSpaceOnUse"
       x1="301.47989"
       y1="170.4108"
       x2="301.47989"
       y2="204.65691">
      <stop
         offset="0"
         style="stop-color:#3E3D40"
         id="stop4581-9" />
      <stop
         offset="1"
         style="stop-color:#000000"
         id="stop4583-1" />
    </linearGradient>
    <linearGradient
       id="SVGID_3_-2"
       gradientUnits="userSpaceOnUse"
       x1="285.99951"
       y1="152.2731"
       x2="285.99951"
       y2="221.41859">
      <stop
         offset="0"
         style="stop-color:#FFEE27"
         id="stop4588-7" />
      <stop
         offset="0.1425"
         style="stop-color:#FFE612"
         id="stop4590-0" />
      <stop
         offset="0.4575"
         style="stop-color:#FFD600"
         id="stop4592-9" />
      <stop
         offset="0.7511"
         style="stop-color:#FECC00"
         id="stop4594-3" />
      <stop
         offset="1"
         style="stop-color:#FDC800"
         id="stop4596-6" />
    </linearGradient>
    <linearGradient
       id="SVGID_4_-0"
       gradientUnits="userSpaceOnUse"
       x1="262.64371"
       y1="145.4791"
       x2="262.64371"
       y2="226.6344">
      <stop
         offset="0"
         style="stop-color:#3E3D40"
         id="stop4601-6" />
      <stop
         offset="1"
         style="stop-color:#000000"
         id="stop4603-2" />
    </linearGradient>
    <linearGradient
       id="SVGID_5_-6"
       gradientUnits="userSpaceOnUse"
       x1="239.9572"
       y1="144.0309"
       x2="239.9572"
       y2="227.0495">
      <stop
         offset="0"
         style="stop-color:#FFEE27"
         id="stop4608-1" />
      <stop
         offset="0.1425"
         style="stop-color:#FFE612"
         id="stop4610-8" />
      <stop
         offset="0.4575"
         style="stop-color:#FFD600"
         id="stop4612-7" />
      <stop
         offset="0.7511"
         style="stop-color:#FECC00"
         id="stop4614-9" />
      <stop
         offset="1"
         style="stop-color:#FDC800"
         id="stop4616-2" />
    </linearGradient>
    <linearGradient
       id="SVGID_6_-0"
       gradientUnits="userSpaceOnUse"
       x1="219.06619"
       y1="144.1364"
       x2="219.06619"
       y2="226.1989">
      <stop
         offset="0"
         style="stop-color:#3E3D40"
         id="stop4621-2" />
      <stop
         offset="1"
         style="stop-color:#000000"
         id="stop4623-3" />
    </linearGradient>
    <linearGradient
       id="SVGID_7_-7"
       gradientUnits="userSpaceOnUse"
       x1="200.52049"
       y1="146.7887"
       x2="200.52049"
       y2="221.6647">
      <stop
         offset="0"
         style="stop-color:#FFEE27"
         id="stop4628-5" />
      <stop
         offset="0.1425"
         style="stop-color:#FFE612"
         id="stop4630-9" />
      <stop
         offset="0.4575"
         style="stop-color:#FFD600"
         id="stop4632-2" />
      <stop
         offset="0.7511"
         style="stop-color:#FECC00"
         id="stop4634-2" />
      <stop
         offset="1"
         style="stop-color:#FDC800"
         id="stop4636-8" />
    </linearGradient>
    <linearGradient
       id="SVGID_8_-9"
       gradientUnits="userSpaceOnUse"
       x1="182.2534"
       y1="153.13831"
       x2="182.2534"
       y2="213.3161">
      <stop
         offset="0"
         style="stop-color:#3E3D40"
         id="stop4641-7" />
      <stop
         offset="1"
         style="stop-color:#000000"
         id="stop4643-3" />
    </linearGradient>
    <radialGradient
       id="SVGID_9_-6"
       cx="146.1346"
       cy="156.61929"
       r="37.577999"
       fx="138.7421"
       fy="148.8071"
       gradientUnits="userSpaceOnUse">
      <stop
         offset="0"
         style="stop-color:#FFEE27"
         id="stop4652-1" />
      <stop
         offset="0.1317"
         style="stop-color:#FFE91C"
         id="stop4654-2" />
      <stop
         offset="1"
         style="stop-color:#FDC800"
         id="stop4656-9" />
    </radialGradient>
    <linearGradient
       id="SVGID_10_-3"
       gradientUnits="userSpaceOnUse"
       x1="164.5629"
       y1="212.5748"
       x2="198.271"
       y2="212.5748">
      <stop
         offset="0"
         style="stop-color:#FFEE27"
         id="stop4721-1" />
      <stop
         offset="0.1425"
         style="stop-color:#FFE612"
         id="stop4723-9" />
      <stop
         offset="0.4575"
         style="stop-color:#FFD600"
         id="stop4725-4" />
      <stop
         offset="0.7511"
         style="stop-color:#FECC00"
         id="stop4727-7" />
      <stop
         offset="1"
         style="stop-color:#FDC800"
         id="stop4729-8" />
    </linearGradient>
    <linearGradient
       id="SVGID_1_-1"
       gradientUnits="userSpaceOnUse"
       x1="166.0096"
       y1="208.7643"
       x2="184.98289"
       y2="208.7643"
       gradientTransform="matrix(0.60853751,0,0,-0.57987538,-27.966113,248.15151)">
      <stop
         offset="0"
         style="stop-color:#FFEE27"
         id="stop4550-72" />
      <stop
         offset="0.1425"
         style="stop-color:#FFE612"
         id="stop4552-7" />
      <stop
         offset="0.4575"
         style="stop-color:#FFD600"
         id="stop4554-2" />
      <stop
         offset="0.7511"
         style="stop-color:#FECC00"
         id="stop4556-2" />
      <stop
         offset="1"
         style="stop-color:#FDC800"
         id="stop4558-61" />
    </linearGradient>
    <linearGradient
       gradientTransform="matrix(0.60853751,0,0,0.60853751,-10.341195,71.80043)"
       id="SVGID_2_-0"
       gradientUnits="userSpaceOnUse"
       x1="301.47989"
       y1="170.4108"
       x2="301.47989"
       y2="204.65691">
      <stop
         offset="0"
         style="stop-color:#3E3D40"
         id="stop4581-6" />
      <stop
         offset="1"
         style="stop-color:#000000"
         id="stop4583-15" />
    </linearGradient>
    <linearGradient
       gradientTransform="matrix(0.60853751,0,0,0.60853751,-10.341195,71.80043)"
       id="SVGID_3_-9"
       gradientUnits="userSpaceOnUse"
       x1="285.99951"
       y1="152.2731"
       x2="285.99951"
       y2="221.41859">
      <stop
         offset="0"
         style="stop-color:#FFEE27"
         id="stop4588-4" />
      <stop
         offset="0.1425"
         style="stop-color:#FFE612"
         id="stop4590-9" />
      <stop
         offset="0.4575"
         style="stop-color:#FFD600"
         id="stop4592-0" />
      <stop
         offset="0.7511"
         style="stop-color:#FECC00"
         id="stop4594-9" />
      <stop
         offset="1"
         style="stop-color:#FDC800"
         id="stop4596-1" />
    </linearGradient>
    <linearGradient
       gradientTransform="matrix(0.60853751,0,0,0.60853751,-10.341195,71.80043)"
       id="SVGID_4_-7"
       gradientUnits="userSpaceOnUse"
       x1="262.64371"
       y1="145.4791"
       x2="262.64371"
       y2="226.6344">
      <stop
         offset="0"
         style="stop-color:#3E3D40"
         id="stop4601-7" />
      <stop
         offset="1"
         style="stop-color:#000000"
         id="stop4603-1" />
    </linearGradient>
    <linearGradient
       gradientTransform="matrix(0.60853751,0,0,0.60853751,-10.341195,71.80043)"
       id="SVGID_5_-1"
       gradientUnits="userSpaceOnUse"
       x1="239.9572"
       y1="144.0309"
       x2="239.9572"
       y2="227.0495">
      <stop
         offset="0"
         style="stop-color:#FFEE27"
         id="stop4608-5" />
      <stop
         offset="0.1425"
         style="stop-color:#FFE612"
         id="stop4610-9" />
      <stop
         offset="0.4575"
         style="stop-color:#FFD600"
         id="stop4612-77" />
      <stop
         offset="0.7511"
         style="stop-color:#FECC00"
         id="stop4614-6" />
      <stop
         offset="1"
         style="stop-color:#FDC800"
         id="stop4616-7" />
    </linearGradient>
    <linearGradient
       gradientTransform="matrix(0.60853751,0,0,0.60853751,-10.341195,71.80043)"
       id="SVGID_6_-3"
       gradientUnits="userSpaceOnUse"
       x1="219.06619"
       y1="144.1364"
       x2="219.06619"
       y2="226.1989">
      <stop
         offset="0"
         style="stop-color:#3E3D40"
         id="stop4621-6" />
      <stop
         offset="1"
         style="stop-color:#000000"
         id="stop4623-5" />
    </linearGradient>
    <linearGradient
       gradientTransform="matrix(0.60853751,0,0,0.60853751,-10.341195,71.80043)"
       id="SVGID_7_-6"
       gradientUnits="userSpaceOnUse"
       x1="200.52049"
       y1="146.7887"
       x2="200.52049"
       y2="221.6647">
      <stop
         offset="0"
         style="stop-color:#FFEE27"
         id="stop4628-3" />
      <stop
         offset="0.1425"
         style="stop-color:#FFE612"
         id="stop4630-94" />
      <stop
         offset="0.4575"
         style="stop-color:#FFD600"
         id="stop4632-8" />
      <stop
         offset="0.7511"
         style="stop-color:#FECC00"
         id="stop4634-1" />
      <stop
         offset="1"
         style="stop-color:#FDC800"
         id="stop4636-2" />
    </linearGradient>
    <linearGradient
       gradientTransform="matrix(0.60853751,0,0,0.60853751,-10.341195,71.80043)"
       id="SVGID_8_-93"
       gradientUnits="userSpaceOnUse"
       x1="182.2534"
       y1="153.13831"
       x2="182.2534"
       y2="213.3161">
      <stop
         offset="0"
         style="stop-color:#3E3D40"
         id="stop4641-9" />
      <stop
         offset="1"
         style="stop-color:#000000"
         id="stop4643-0" />
    </linearGradient>
    <radialGradient
       gradientTransform="matrix(0.60853751,0,0,0.60853751,-10.341195,71.80043)"
       id="SVGID_9_-8"
       cx="146.1346"
       cy="156.61929"
       r="37.577999"
       fx="138.7421"
       fy="148.8071"
       gradientUnits="userSpaceOnUse">
      <stop
         offset="0"
         style="stop-color:#FFEE27"
         id="stop4652-8" />
      <stop
         offset="0.1317"
         style="stop-color:#FFE91C"
         id="stop4654-5" />
      <stop
         offset="1"
         style="stop-color:#FDC800"
         id="stop4656-0" />
    </radialGradient>
    <linearGradient
       gradientTransform="matrix(0.60853751,0,0,0.60853751,-10.341195,71.80043)"
       id="SVGID_10_-9"
       gradientUnits="userSpaceOnUse"
       x1="164.5629"
       y1="212.5748"
       x2="198.271"
       y2="212.5748">
      <stop
         offset="0"
         style="stop-color:#FFEE27"
         id="stop4721-6" />
      <stop
         offset="0.1425"
         style="stop-color:#FFE612"
         id="stop4723-3" />
      <stop
         offset="0.4575"
         style="stop-color:#FFD600"
         id="stop4725-8" />
      <stop
         offset="0.7511"
         style="stop-color:#FECC00"
         id="stop4727-5" />
      <stop
         offset="1"
         style="stop-color:#FDC800"
         id="stop4729-6" />
    </linearGradient>
    <linearGradient
       gradientTransform="matrix(1,0,0,-0.9529,0,402.9781)"
       y2="208.7643"
       x2="184.98289"
       y1="208.7643"
       x1="166.0096"
       gradientUnits="userSpaceOnUse"
       id="linearGradient5440">
      <stop
         id="stop5430"
         style="stop-color:#FFEE27"
         offset="0" />
      <stop
         id="stop5432"
         style="stop-color:#FFE612"
         offset="0.1425" />
      <stop
         id="stop5434"
         style="stop-color:#FFD600"
         offset="0.4575" />
      <stop
         id="stop5436"
         style="stop-color:#FECC00"
         offset="0.7511" />
      <stop
         id="stop5438"
         style="stop-color:#FDC800"
         offset="1" />
    </linearGradient>
    <linearGradient
       y2="212.5748"
       x2="198.271"
       y1="212.5748"
       x1="164.5629"
       gradientUnits="userSpaceOnUse"
       id="linearGradient5570">
      <stop
         id="stop5560"
         style="stop-color:#FFEE27"
         offset="0" />
      <stop
         id="stop5562"
         style="stop-color:#FFE612"
         offset="0.1425" />
      <stop
         id="stop5564"
         style="stop-color:#FFD600"
         offset="0.4575" />
      <stop
         id="stop5566"
         style="stop-color:#FECC00"
         offset="0.7511" />
      <stop
         id="stop5568"
         style="stop-color:#FDC800"
         offset="1" />
    </linearGradient>
    <radialGradient
       id="radialGradient5527"
       cx="146.1346"
       cy="156.61929"
       r="37.577999"
       fx="138.7421"
       fy="148.8071"
       gradientUnits="userSpaceOnUse">
      <stop
         offset="0"
         style="stop-color:#FFEE27"
         id="stop5521" />
      <stop
         offset="0.1317"
         style="stop-color:#FFE91C"
         id="stop5523" />
      <stop
         offset="1"
         style="stop-color:#FDC800"
         id="stop5525" />
    </radialGradient>
    <linearGradient
       id="linearGradient5456"
       gradientUnits="userSpaceOnUse"
       x1="301.47989"
       y1="170.4108"
       x2="301.47989"
       y2="204.65691">
      <stop
         offset="0"
         style="stop-color:#3E3D40"
         id="stop5452" />
      <stop
         offset="1"
         style="stop-color:#000000"
         id="stop5454" />
    </linearGradient>
    <linearGradient
       id="linearGradient5469"
       gradientUnits="userSpaceOnUse"
       x1="285.99951"
       y1="152.2731"
       x2="285.99951"
       y2="221.41859">
      <stop
         offset="0"
         style="stop-color:#FFEE27"
         id="stop5459" />
      <stop
         offset="0.1425"
         style="stop-color:#FFE612"
         id="stop5461" />
      <stop
         offset="0.4575"
         style="stop-color:#FFD600"
         id="stop5463" />
      <stop
         offset="0.7511"
         style="stop-color:#FECC00"
         id="stop5465" />
      <stop
         offset="1"
         style="stop-color:#FDC800"
         id="stop5467" />
    </linearGradient>
    <linearGradient
       id="linearGradient5476"
       gradientUnits="userSpaceOnUse"
       x1="262.64371"
       y1="145.4791"
       x2="262.64371"
       y2="226.6344">
      <stop
         offset="0"
         style="stop-color:#3E3D40"
         id="stop5472" />
      <stop
         offset="1"
         style="stop-color:#000000"
         id="stop5474" />
    </linearGradient>
    <linearGradient
       id="linearGradient5489"
       gradientUnits="userSpaceOnUse"
       x1="239.9572"
       y1="144.0309"
       x2="239.9572"
       y2="227.0495">
      <stop
         offset="0"
         style="stop-color:#FFEE27"
         id="stop5479" />
      <stop
         offset="0.1425"
         style="stop-color:#FFE612"
         id="stop5481" />
      <stop
         offset="0.4575"
         style="stop-color:#FFD600"
         id="stop5483" />
      <stop
         offset="0.7511"
         style="stop-color:#FECC00"
         id="stop5485" />
      <stop
         offset="1"
         style="stop-color:#FDC800"
         id="stop5487" />
    </linearGradient>
    <linearGradient
       id="linearGradient5496"
       gradientUnits="userSpaceOnUse"
       x1="219.06619"
       y1="144.1364"
       x2="219.06619"
       y2="226.1989">
      <stop
         offset="0"
         style="stop-color:#3E3D40"
         id="stop5492" />
      <stop
         offset="1"
         style="stop-color:#000000"
         id="stop5494" />
    </linearGradient>
    <linearGradient
       id="linearGradient5509"
       gradientUnits="userSpaceOnUse"
       x1="200.52049"
       y1="146.7887"
       x2="200.52049"
       y2="221.6647">
      <stop
         offset="0"
         style="stop-color:#FFEE27"
         id="stop5499" />
      <stop
         offset="0.1425"
         style="stop-color:#FFE612"
         id="stop5501" />
      <stop
         offset="0.4575"
         style="stop-color:#FFD600"
         id="stop5503" />
      <stop
         offset="0.7511"
         style="stop-color:#FECC00"
         id="stop5505" />
      <stop
         offset="1"
         style="stop-color:#FDC800"
         id="stop5507" />
    </linearGradient>
    <linearGradient
       id="linearGradient5516"
       gradientUnits="userSpaceOnUse"
       x1="182.2534"
       y1="153.13831"
       x2="182.2534"
       y2="213.3161">
      <stop
         offset="0"
         style="stop-color:#3E3D40"
         id="stop5512" />
      <stop
         offset="1"
         style="stop-color:#000000"
         id="stop5514" />
    </linearGradient>
  </defs>
  <metadata
     id="metadata5">
    <rdf:RDF>
      <cc:Work
         rdf:about="">
        <dc:format>image/svg+xml</dc:format>
        <dc:type
           rdf:resource="http://purl.org/dc/dcmitype/StillImage" />
        <dc:title></dc:title>
      </cc:Work>
    </rdf:RDF>
  </metadata>
  <g
     transform="translate(-2.9835069,-46.422614)"
     id="layer1">
    <g
       id="layer1-3"
       transform="matrix(0.26458333,0,0,0.26458333,-15.198944,49.561022)">
      <path
         style="filter:url(#filter4037)"
         id="path3969"
         d="m 169.86,507.87 c -20.785,77.131 -51.799,144.5 -72.654,221.61 2.1015,4.6742 8.8667,1.0502 12.719,2.1875 233.25,-0.083 466.56,0.1667 699.78,-0.125 4.2968,-2.5855 -1.1212,-8.655 -1.0077,-12.491 -20.23,-74.16 -48.44,-142.55 -68.69,-216.7 -196.02,0 -373.71,4.0362 -569.73,4.0362 l -0.27,0.96 z" />
      <path
         style="fill:#dcd3ba"
         id="rect3020"
         d="m 746.45,498.58 62.933,230.64 c 0.0643,0.2358 -0.23656,0.4411 -0.53041,0.4411 h -708.94 c -0.29385,0 -0.59221,-0.2046 -0.53041,-0.4411 l 62.067,-230.64 z" />
      <path
         style="opacity:0.48560001;fill:#89d375"
         id="path3795"
         d="m 726.73,727.45 c 0,-1.1136 -3.3217,-4.2151 -5.067,-4.7311 -2.3188,-0.6855 -9.2187,-4.8201 -9.2187,-5.5241 0,-0.3098 -0.40179,-0.5771 -0.89286,-0.5938 -2.6563,-0.091 -10.236,-9.2779 -11.922,-14.45 -0.64973,-1.9935 -1.5989,-3.0627 -3.6462,-4.1071 -1.5223,-0.7766 -3.2689,-1.4121 -3.8812,-1.4121 -0.61236,0 -2.7948,-0.8905 -4.8499,-1.979 -2.0551,-1.0885 -5.6651,-2.5678 -8.0222,-3.2874 -6.7148,-2.0498 -10.022,-3.9058 -14.701,-8.2492 -3.3438,-3.1039 -4.6508,-4.927 -5.6893,-7.9356 -0.74155,-2.1483 -1.3588,-4.4202 -1.3716,-5.0487 -0.0129,-0.6286 -0.94749,-2.4186 -2.077,-3.9779 -1.12951,-1.5593 -2.2762,-3.5361 -2.5481,-4.3929 -0.27195,-0.8568 -0.79421,-1.5578 -1.1606,-1.5578 -0.36637,0 -0.66615,-0.631 -0.66615,-1.4021 0,-1.9039 -6.7557,-8.343 -10.714,-10.212 -1.7679,-0.8347 -3.4713,-1.938 -3.7855,-2.4518 -0.31417,-0.5137 -1.7606,-0.9343 -3.2143,-0.9345 -4.633,-9e-4 -20.857,-4.9085 -20.857,-6.309 0,-0.3169 -0.95919,-1.6505 -2.1315,-2.9636 -1.17231,-1.3131 -2.3386,-3.0398 -2.5917,-3.8372 -0.25309,-0.7974 -1.7046,-3.4831 -3.2256,-5.9681 -2.6817,-4.3813 -2.7658,-4.718 -2.7762,-11.113 -0.01,-6.0881 -0.73063,-9.7693 -2.5034,-12.786 -0.3851,-0.6554 -3.2716,-2.4385 -6.4145,-3.9625 -3.1429,-1.5239 -6.6229,-3.3712 -7.7334,-4.105 -1.6882,-1.1156 -4.0881,-1.4192 -14.643,-1.8523 -13.358,-0.5482 -19.644,-1.8523 -23.824,-4.9423 -1.0759,-0.7955 -2.2261,-1.4463 -2.556,-1.4463 -0.32984,0 -1.0065,-1.125 -1.5037,-2.5 -0.4972,-1.375 -1.3654,-2.5 -1.9292,-2.5 -0.56386,0 -1.0252,-0.3147 -1.0252,-0.6993 0,-0.9196 -7.8027,-8.5865 -8.7386,-8.5865 -0.61877,0 -8.4709,-3.756 -13.047,-6.2409 -0.78572,-0.4267 -3.3571,-1.1475 -5.7143,-1.6018 -4.7721,-0.9197 -10.318,-3.3679 -10.867,-4.7968 -0.19667,-0.5126 -0.72498,-0.9319 -1.174,-0.9319 -1.4014,0 -4.496,-4.5161 -5.0237,-7.3312 -0.27717,-1.4785 -0.52833,-7.8783 -0.55812,-14.222 -0.0534,-11.366 -0.0832,-11.579 -2.0572,-14.692 -1.1017,-1.7372 -3.3923,-4.5684 -5.0902,-6.2916 -1.6979,-1.7232 -4.6155,-4.7108 -6.4835,-6.6392 -1.868,-1.9284 -4.8349,-4.8322 -6.5931,-6.4529 l -2.7909,-3.8435 h 275 l 31.093,115.19 c 16.88,62.534 29.839,114.01 29.861,114.11 0.022,0.098 -18.121,0.1786 -40.317,0.1786 -22.196,0 -40.357,-0.2745 -40.357,-0.61 z" />
      <path
         style="fill:#ffeeaa"
         id="rect3804"
         d="m 589.45,498.58 h 45 l 9.933,231.08 h -65 z" />
      <g
         style="fill:#ffffff"
         id="g3846"
         transform="translate(105.02,-618.78)">
        <path
           id="rect3797"
           d="m 676.43,1242.4 10,40 h -590 l 10,-35 z" />
        <path
           id="rect3799"
           d="m 116.43,1117.4 h 40 l -36.067,165.08 h -50 z" />
      </g>
      <path
         style="fill:none"
         id="path3861"
         d="m 746.45,498.58 62.933,230.64 c 0.0643,0.2358 -0.23656,0.4411 -0.53041,0.4411 h -708.94 c -0.29385,0 -0.59221,-0.2046 -0.53041,-0.4411 l 62.067,-230.64 z" />
      <path
         style="opacity:0.8;fill:none;stroke:#000000;stroke-width:10"
         id="path4041"
         d="m 746.45,498.58 62.933,230.64 c 0.0643,0.2358 -0.23656,0.4411 -0.53041,0.4411 h -708.94 c -0.29385,0 -0.59221,-0.2046 -0.53041,-0.4411 l 62.067,-230.64 z" />
      <path
         style="fill:#ffe680;stroke:#000000;stroke-width:10.39700031"
         id="path4043"
         d="m 452.08,63.785 c -99.484,0 -179.81,80.41 -179.81,179.59 0,31.186 7.9688,60.528 21.938,86.094 l 157.88,264.31 157.88,-264.31 c 13.969,-25.566 21.938,-54.908 21.938,-86.094 0,-99.184 -80.328,-179.59 -179.81,-179.59 z m -2,104.37 c 0.6674,-0.0169 1.3285,0 2,0 42.975,0 77.812,34.838 77.812,77.813 0,42.975 -34.838,77.812 -77.812,77.812 -42.975,0 -77.812,-34.838 -77.812,-77.812 0,-42.303 33.766,-76.747 75.812,-77.813 z" />
    </g>
    <path
       id="path4043-6"
       d="m 149.08821,47.800845 c -0.63815,0.006 -1.27415,0.04082 -1.90531,0.119372 -2.52956,0.26471 -4.96537,1.003634 -7.21507,2.010214 -2.24605,1.023929 -4.33388,2.289266 -6.23528,3.717085 -3.81442,2.849959 -7.00971,6.169464 -9.7286,9.526034 -1.56864,1.928576 -2.9939,3.861339 -4.30465,5.762439 -2.85224,-0.963763 -5.82768,-1.662252 -8.89558,-2.072225 0.0199,-0.285378 0.0392,-0.570914 0.0522,-0.859896 0.0661,-1.46676 0.0648,-2.984894 -0.19483,-4.520655 -0.25849,-1.525119 -0.81606,-3.094808 -1.85208,-4.378026 -1.02035,-1.29053 -2.41807,-2.259108 -3.91294,-2.932638 -1.51197,-0.64359 -3.08867,-1.098546 -4.71754,-1.390096 -0.810579,-0.17228 -1.599926,-0.236843 -2.403985,-0.350883 -0.434191,-0.0485 -0.834183,-0.06489 -1.253154,-0.09819 -0.418502,0.004 -0.834961,-0.02133 -1.25522,0.0083 -0.839531,0.0307 -1.683747,0.170003 -2.509409,0.402043 -0.82238,0.25023 -1.617009,0.645705 -2.301668,1.192175 -0.686128,0.54507 -1.243865,1.244913 -1.644343,2.007112 -0.40522,0.76341 -0.641911,1.584958 -0.799952,2.400887 -0.310031,1.642201 -0.227717,3.277734 -0.05633,4.852934 0.19242,1.57666 0.514487,3.104953 0.899686,4.584733 0.100605,0.384298 0.205632,0.76478 0.314193,1.142566 -6.116241,2.061236 -11.669181,5.331569 -16.382463,9.522415 -2.127319,-0.298349 -4.237257,-0.378859 -6.263182,-0.259932 -0.0827,-0.0936 -0.164468,-0.186579 -0.248047,-0.28112 -0.29197,-0.36196 -0.668875,-0.656495 -1.021644,-0.984435 -0.18457,-0.15499 -0.393832,-0.284454 -0.592211,-0.428915 -0.19966,-0.14362 -0.401577,-0.286248 -0.628385,-0.394807 -0.220771,-0.117511 -0.44359,-0.235738 -0.667661,-0.355017 -0.243228,-0.0924 -0.488198,-0.185453 -0.734838,-0.279053 -1.57245,-0.56916 -3.451058,-0.603168 -5.192447,-0.07545 0.264538,-0.66667 0.53944,-1.338056 0.849558,-2.008146 0.436682,-0.98291 0.936493,-1.953907 1.456243,-2.913517 0.539411,-0.94767 1.102297,-1.883405 1.723927,-2.757455 0.30725,-0.43979 0.618548,-0.871667 0.953429,-1.276407 0.317709,-0.41934 0.663652,-0.804844 1.006141,-1.182874 0.68162,-0.75957 1.411513,-1.423605 2.131653,-2.017965 0.36463,-0.29088 0.74122,-0.544689 1.093989,-0.806669 0.368411,-0.23775 0.737399,-0.447951 1.084688,-0.660941 0.02619,-0.0136 0.05141,-0.02577 0.07752,-0.03927 0.0525,0.0899 0.107416,0.178026 0.168466,0.262516 0.377589,0.51739 0.897241,0.898401 1.453141,1.133781 0.28333,0.10838 0.562441,0.19801 0.861963,0.23151 0.151889,0.0275 0.281164,0.02411 0.417544,0.03411 0.15408,0.002 0.285692,-0.007 0.426331,-0.01602 0.552,-0.0578 1.056354,-0.242513 1.471745,-0.492993 0.84465,-0.50466 1.270534,-1.273096 1.430403,-1.814876 0.0837,-0.26612 0.116991,-0.521591 0.12609,-0.657841 0.009,-0.1431 0.01394,-0.219625 0.01394,-0.219625 l 5.29e-4,-0.01137 c 0,0 -0.004,-0.0821 -0.01035,-0.236162 -0.008,-0.153289 -0.0345,-0.380411 -0.114205,-0.65784 -0.14909,-0.54817 -0.569698,-1.329931 -1.420069,-1.852601 -0.425119,-0.25644 -0.923541,-0.439477 -1.502751,-0.498677 -0.537829,-0.0522 -1.155319,0.0251 -1.716691,0.258382 -0.563809,0.23739 -1.081955,0.634939 -1.455724,1.159619 -0.182621,0.264471 -0.330142,0.55538 -0.434084,0.86403 -0.0951,0.30421 -0.144885,0.661353 -0.147277,0.952913 0.003,0.4276 0.093,0.836553 0.253732,1.211812 -0.0294,0.0145 -0.05783,0.02716 -0.08733,0.04186 -0.36081,0.21092 -0.74408,0.419788 -1.12758,0.656808 -0.367131,0.26082 -0.759823,0.515032 -1.139981,0.806152 -0.750811,0.59454 -1.512864,1.261186 -2.225704,2.024166 -0.358252,0.37979 -0.720225,0.768361 -1.053166,1.189592 -0.35064,0.40741 -0.677082,0.841232 -0.999422,1.283642 -0.65211,0.8797 -1.244044,1.820905 -1.812292,2.775025 -0.548111,0.96514 -1.075706,1.942733 -1.538925,2.931604 -0.432531,0.888189 -0.809924,1.781455 -1.168406,2.656685 -0.0422,0.0186 -0.0852,0.03538 -0.127121,0.05478 -2.035083,0.90781 -3.770321,2.510113 -5.040522,4.418852 -0.130048,0.178112 -0.24698,0.36476 -0.3576,0.555519 -0.28901,-2.045899 -0.514398,-4.380573 -0.513146,-6.729303 0.01,-0.84301 0.0353,-1.686838 0.112138,-2.512508 0.0741,-0.82548 0.178819,-1.636101 0.345197,-2.406571 0.150312,-0.77491 0.373361,-1.504263 0.61495,-2.184363 0.138379,-0.33201 0.273716,-0.656185 0.419097,-0.962215 0.169108,-0.29252 0.305972,-0.593461 0.48524,-0.851111 0.342252,-0.52766 0.71868,-0.967016 1.086239,-1.321366 0.097,-0.0836 0.181229,-0.156045 0.271817,-0.234095 0.14192,0.14542 0.315381,0.282465 0.52555,0.393775 0.263742,0.14191 0.577604,0.242452 0.917774,0.275952 0.0874,0.004 0.166277,0.01062 0.264067,0.0098 0.0842,-0.005 0.159888,-10e-4 0.255799,-0.01602 0.187608,-0.0175 0.360955,-0.0622 0.540536,-0.120406 0.351978,-0.12518 0.695653,-0.335925 0.954463,-0.644405 0.262459,-0.30767 0.424881,-0.700685 0.427879,-1.137915 0.0021,-0.38618 -0.160314,-0.827276 -0.420645,-1.123446 -0.25686,-0.31327 -0.604004,-0.524119 -0.957564,-0.650089 -0.353931,-0.12143 -0.732131,-0.158051 -1.058849,-0.127641 -0.356482,0.0347 -0.66112,0.135079 -0.929659,0.278019 -0.539112,0.283639 -0.840938,0.739714 -0.953947,1.077454 -0.056,0.17124 -0.07888,0.31276 -0.08578,0.40876 -0.005,0.0964 -0.0083,0.147795 -0.0083,0.147795 l 5.29e-4,0.0093 c 0,0 0.0033,0.0463 0.0083,0.133325 0.006,0.0854 0.03218,0.247921 0.08888,0.411861 0.0574,0.16868 0.162552,0.365158 0.320394,0.554488 -0.0932,0.0751 -0.179443,0.144533 -0.279053,0.224793 -0.389102,0.35094 -0.790903,0.790226 -1.160653,1.321366 -0.193151,0.25971 -0.343776,0.561926 -0.527616,0.858346 -0.159441,0.30883 -0.309335,0.636874 -0.462505,0.973584 -0.27037,0.68758 -0.52346,1.427128 -0.7028,2.212268 -0.195638,0.78166 -0.328985,1.604241 -0.432014,2.441711 -0.10564,0.83783 -0.160131,1.693288 -0.197921,2.549199 -0.0766,2.294809 0.06021,4.577893 0.270785,6.601665 h -5.29e-4 c -1.276231,-0.2539 -2.700055,-0.105096 -3.968234,0.468704 -1.573372,0.69111 -2.927379,1.924417 -3.922758,3.402377 -1.01827,1.46549 -1.656186,3.221128 -1.987476,4.986258 -0.285649,1.783191 -0.277429,3.635492 0.185002,5.36453 0.298731,1.1805 0.798552,2.305924 1.480013,3.279905 -0.0838,0.49217 -0.156556,0.949111 -0.150894,1.333251 -0.0525,1.129993 -0.08062,1.732713 -0.08062,1.732713 l 5.29e-4,0.009 c 0,0 0.0396,0.59679 0.114205,1.71565 0.0021,0.56016 0.170947,1.24792 0.312126,2.05569 0.1065,0.81958 0.447437,1.7001 0.728639,2.71508 0.726839,1.97081 1.86522,4.29683 3.714501,6.58668 1.84223,2.28451 4.396264,4.50067 7.584032,6.23166 1.050288,0.57295 2.170235,1.09141 3.347083,1.54616 0.900427,5.23236 2.651066,10.17515 5.109249,14.67404 l 41.772648,69.93164 41.77212,-69.93164 c 1.14056,-2.08744 2.12887,-4.27075 2.95176,-6.53345 1.90399,-1.38966 3.56918,-2.90514 4.95319,-4.52427 2.36642,-2.76849 3.91746,-5.83613 4.45554,-9.08575 4.41316,0.0607 8.03913,-2.53672 7.72614,-3.11558 -1.33602,0.24696 -5.37524,0.50895 -7.51582,0.38137 0.50953,-1.85931 0,0 0.50953,-1.85931 -0.34644,-2.47042 -1.27743,-4.8376 -2.70785,-7.0528 -1.78282,-2.76964 -4.33902,-5.300414 -7.5122,-7.49308 -1.60984,-4.347517 -3.83718,-8.395316 -6.57737,-12.036475 1.54286,-0.766816 3.11494,-1.576419 4.7103,-2.439644 3.7812,-2.059352 7.70862,-4.379057 11.48612,-7.229018 1.87983,-1.43317 3.72647,-2.995913 5.40536,-4.797123 0.83881,-0.89905 1.64279,-1.852722 2.34249,-2.903182 0.70298,-1.04467 1.3264,-2.172153 1.757,-3.404443 0.4322,-1.22736 0.64196,-2.575521 0.51831,-3.91759 -0.11806,-1.34317 -0.58807,-2.646428 -1.27744,-3.779098 -1.38629,-2.279649 -3.47411,-3.959924 -5.61981,-5.311303 -2.16335,-1.351869 -4.50029,-2.491712 -6.99595,-3.131592 -1.23875,-0.34827 -2.51783,-0.524696 -3.7915,-0.650606 -0.63898,-0.03429 -1.27906,-0.05579 -1.9172,-0.04961 z"
       style="fill:#ffeeaa;fill-opacity:1;stroke:#000000;stroke-width:2.75087285" />
    <g
       transform="matrix(0.60853751,0,0,0.60853751,-27.034316,1.134019)"
       id="g4746">
      <linearGradient
         id="SVGID_1_"
         gradientUnits="userSpaceOnUse"
         x1="166.0096"
         y1="208.7643"
         x2="184.98289"
         y2="208.7643"
         gradientTransform="matrix(1,0,0,-0.9529,0,402.9781)">
        <stop
           offset="0"
           style="stop-color:#FFEE27"
           id="stop4550" />
        <stop
           offset="0.1425"
           style="stop-color:#FFE612"
           id="stop4552" />
        <stop
           offset="0.4575"
           style="stop-color:#FFD600"
           id="stop4554" />
        <stop
           offset="0.7511"
           style="stop-color:#FECC00"
           id="stop4556" />
        <stop
           offset="1"
           style="stop-color:#FDC800"
           id="stop4558" />
      </linearGradient>
      <g
         id="g4577">
        <g
           id="g4567">
          <path
             style="fill:#f6f6f6"
             d="m 213.4839,158.0744 c 0,0 -47.5977,-76.9478 -8.7266,-72.9815 38.8711,3.9658 10.3135,34.9038 23.0054,67.4287"
             id="path4563" />
          <path
             d="m 212.9471,158.4054 c 0,0 -0.3075,-0.5935 -0.8839,-1.7064 -0.5898,-1.1015 -1.4631,-2.7091 -2.606,-4.7359 -2.2959,-4.047 -5.5421,-9.8534 -9.0292,-17.0362 -1.7365,-3.5938 -3.5636,-7.5175 -5.3017,-11.757 -1.7318,-4.2397 -3.4162,-8.7857 -4.6896,-13.6499 -0.633,-2.4317 -1.1629,-4.9434 -1.4791,-7.5343 -0.2816,-2.5885 -0.4163,-5.276 0.0932,-7.9746 0.2597,-1.3408 0.6488,-2.691 1.3147,-3.9455 0.6581,-1.2525 1.5742,-2.4024 2.7017,-3.2981 1.1251,-0.898 2.4308,-1.5482 3.7822,-1.9594 1.3568,-0.3813 2.744,-0.6098 4.1236,-0.6603 0.6906,-0.0481 1.3752,-0.0072 2.0629,-0.013 0.6885,0.0547 1.3458,0.081 2.0593,0.1608 1.3213,0.1874 2.6187,0.2933 3.9507,0.5764 2.6767,0.4791 5.2672,1.2273 7.7518,2.2849 2.4565,1.1068 4.7538,2.6983 6.4305,4.819 1.7025,2.1087 2.6187,4.6882 3.0435,7.1944 0.4266,2.5237 0.4289,5.0183 0.3203,7.4286 -0.1089,2.4144 -0.3803,4.7514 -0.6384,7.0223 -0.541,4.5378 -1.1233,8.8098 -1.4166,12.7799 -0.2783,3.9692 -0.2963,7.6251 -0.0722,10.8518 0.2535,3.223 0.6574,6.0215 1.185,8.2852 0.5035,2.2684 1.1463,3.9911 1.7433,5.0917 0.5656,1.1144 0.9572,1.6627 0.9572,1.6627 l -1.175,0.4585 c 0,0 -0.0497,-0.7043 -0.3114,-1.9382 -0.136,-0.612 -0.3036,-1.3668 -0.5007,-2.2542 -0.1671,-0.892 -0.5022,-1.8758 -0.7245,-3.0178 -0.5558,-2.2578 -0.9949,-5.0531 -1.2888,-8.2791 -0.2704,-3.2299 -0.2789,-6.8937 -0.0755,-10.8764 0.1653,-3.9865 0.6108,-8.2895 1.0039,-12.8322 0.1855,-2.2711 0.3774,-4.6049 0.4027,-6.9829 0.0274,-2.3739 -0.0625,-4.8053 -0.5487,-7.1827 -0.4739,-2.3753 -1.439,-4.6661 -2.983,-6.5442 -1.5413,-1.8826 -3.6438,-3.3024 -5.9623,-4.3033 -2.343,-0.9512 -4.8531,-1.6344 -7.3928,-2.0459 -0.6227,-0.1361 -1.2881,-0.2028 -1.9452,-0.284 L 204.877,85.95 c -0.6044,-0.0687 -1.2747,-0.1 -1.9092,-0.1529 -0.6392,0.006 -1.2847,-0.0364 -1.919,0.0076 -1.2766,0.0423 -2.5248,0.2518 -3.7225,0.5814 -1.1876,0.3589 -2.2924,0.9133 -3.2363,1.6613 -1.9148,1.4887 -3.0114,3.8243 -3.4497,6.2675 -0.4931,2.4461 -0.4233,5.0108 -0.1855,7.5051 0.2669,2.5022 0.7455,4.9633 1.3305,7.3585 1.1836,4.7915 2.7567,9.3298 4.4023,13.5674 1.654,4.2369 3.3797,8.1853 5.0863,11.7761 3.4072,7.1859 6.5596,13.0269 8.8435,17.0665 2.297,4.0359 3.9033,6.1551 3.9033,6.1551 z"
             id="path4565" />
        </g>
        <g
           id="g4571" />
        <g
           id="g4575" />
      </g>
      <path
         d="m 303.0127,185.0749 c 0,0 11.5293,1.0078 14.6484,-0.4678 0.5528,1.0224 -6.3711,5.8799 -14.3428,5.0234"
         id="path4579" />
      <g
         id="g4648">
        <linearGradient
           id="SVGID_2_"
           gradientUnits="userSpaceOnUse"
           x1="301.47989"
           y1="170.4108"
           x2="301.47989"
           y2="204.65691">
          <stop
             offset="0"
             style="stop-color:#3E3D40"
             id="stop4581" />
          <stop
             offset="1"
             style="stop-color:#000000"
             id="stop4583" />
        </linearGradient>
        <path
           style="fill:url(#SVGID_2_);stroke:#000000;stroke-width:0.69410002;stroke-miterlimit:10"
           stroke-miterlimit="10"
           d="m 305.3164,185.5397 c 0,-5.3408 -1.6758,-10.4395 -4.6963,-15.1289 -0.0742,11.3662 -1.0635,22.8476 -2.9766,34.2461 4.8916,-5.7227 7.6729,-12.2207 7.6729,-19.1172 z"
           id="path4586" />
        <linearGradient
           id="SVGID_3_"
           gradientUnits="userSpaceOnUse"
           x1="285.99951"
           y1="152.2731"
           x2="285.99951"
           y2="221.41859">
          <stop
             offset="0"
             style="stop-color:#FFEE27"
             id="stop4588" />
          <stop
             offset="0.1425"
             style="stop-color:#FFE612"
             id="stop4590" />
          <stop
             offset="0.4575"
             style="stop-color:#FFD600"
             id="stop4592" />
          <stop
             offset="0.7511"
             style="stop-color:#FECC00"
             id="stop4594" />
          <stop
             offset="1"
             style="stop-color:#FDC800"
             id="stop4596" />
        </linearGradient>
        <path
           style="fill:url(#SVGID_3_);stroke:#000000;stroke-width:0.69410002;stroke-miterlimit:10"
           stroke-miterlimit="10"
           d="m 277.8975,152.2731 c 1.4619,16.3105 0.7675,33.2305 -2.1543,49.9717 -1.1338,6.4951 -2.6016,12.8984 -4.3643,19.1738 11.1543,-3.9541 20.292,-9.7744 26.2646,-16.7617 1.9131,-11.3985 2.9024,-22.8799 2.9766,-34.2461 -4.6777,-7.2647 -12.6074,-13.5371 -22.7226,-18.1377 z"
           id="path4599" />
        <linearGradient
           id="SVGID_4_"
           gradientUnits="userSpaceOnUse"
           x1="262.64371"
           y1="145.4791"
           x2="262.64371"
           y2="226.6344">
          <stop
             offset="0"
             style="stop-color:#3E3D40"
             id="stop4601" />
          <stop
             offset="1"
             style="stop-color:#000000"
             id="stop4603" />
        </linearGradient>
        <path
           style="fill:url(#SVGID_4_);stroke:#000000;stroke-width:0.69410002;stroke-miterlimit:10"
           stroke-miterlimit="10"
           d="m 277.8975,152.2731 c -6.7833,-3.084 -14.5469,-5.4102 -22.9483,-6.794 2.4932,17.001 2.2481,35.0684 -0.8789,52.9834 -1.6924,9.6944 -4.2041,19.1387 -7.4209,28.1719 8.9131,-0.7617 17.2686,-2.5703 24.7295,-5.2158 1.7627,-6.2754 3.2305,-12.6787 4.3643,-19.1738 2.9218,-16.7412 3.6162,-33.6612 2.1543,-49.9717 z"
           id="path4606" />
        <linearGradient
           id="SVGID_5_"
           gradientUnits="userSpaceOnUse"
           x1="239.9572"
           y1="144.0309"
           x2="239.9572"
           y2="227.0495">
          <stop
             offset="0"
             style="stop-color:#FFEE27"
             id="stop4608" />
          <stop
             offset="0.1425"
             style="stop-color:#FFE612"
             id="stop4610" />
          <stop
             offset="0.4575"
             style="stop-color:#FFD600"
             id="stop4612" />
          <stop
             offset="0.7511"
             style="stop-color:#FECC00"
             id="stop4614" />
          <stop
             offset="1"
             style="stop-color:#FDC800"
             id="stop4616" />
        </linearGradient>
        <path
           style="fill:url(#SVGID_5_);stroke:#000000;stroke-width:0.69410002;stroke-miterlimit:10"
           stroke-miterlimit="10"
           d="m 232.4541,144.1364 c 2.9267,15.9482 2.957,33.2793 -0.0562,50.5429 -1.9233,11.0166 -5.02,21.6377 -9.122,31.5196 4.4575,0.5576 9.0727,0.8506 13.8012,0.8506 3.25,0 6.4424,-0.1475 9.5723,-0.4151 3.2168,-9.0332 5.7285,-18.4775 7.4209,-28.1719 3.127,-17.915 3.3721,-35.9824 0.8789,-52.9834 -5.6982,-0.9384 -11.6855,-1.4482 -17.8721,-1.4482 -1.5556,0 -3.0937,0.043 -4.623,0.1055 z"
           id="path4619" />
        <linearGradient
           id="SVGID_6_"
           gradientUnits="userSpaceOnUse"
           x1="219.06619"
           y1="144.1364"
           x2="219.06619"
           y2="226.1989">
          <stop
             offset="0"
             style="stop-color:#3E3D40"
             id="stop4621" />
          <stop
             offset="1"
             style="stop-color:#000000"
             id="stop4623" />
        </linearGradient>
        <path
           style="fill:url(#SVGID_6_);stroke:#000000;stroke-width:0.69410002;stroke-miterlimit:10"
           stroke-miterlimit="10"
           d="m 232.4541,144.1364 c -6.9497,0.2832 -13.6113,1.1972 -19.8369,2.6523 2.6836,13.8613 2.7529,29.1309 0.0786,44.4512 -1.9155,10.9717 -5.0791,21.2041 -9.2168,30.4248 6.0815,2.0977 12.7353,3.6523 19.7969,4.5342 4.102,-9.8819 7.1987,-20.503 9.122,-31.5196 3.0132,-17.2636 2.9829,-34.5947 0.0562,-50.5429 z"
           id="path4626" />
        <linearGradient
           id="SVGID_7_"
           gradientUnits="userSpaceOnUse"
           x1="200.52049"
           y1="146.7887"
           x2="200.52049"
           y2="221.6647">
          <stop
             offset="0"
             style="stop-color:#FFEE27"
             id="stop4628" />
          <stop
             offset="0.1425"
             style="stop-color:#FFE612"
             id="stop4630" />
          <stop
             offset="0.4575"
             style="stop-color:#FFD600"
             id="stop4632" />
          <stop
             offset="0.7511"
             style="stop-color:#FECC00"
             id="stop4634" />
          <stop
             offset="1"
             style="stop-color:#FDC800"
             id="stop4636" />
        </linearGradient>
        <path
           style="fill:url(#SVGID_7_);stroke:#000000;stroke-width:0.69410002;stroke-miterlimit:10"
           stroke-miterlimit="10"
           d="m 193.979,187.9723 c -1.5977,9.1524 -4.2241,17.6895 -7.604,25.3438 4.9072,3.3125 10.6841,6.1347 17.104,8.3486 4.1377,-9.2207 7.3013,-19.4531 9.2168,-30.4248 2.6743,-15.3203 2.605,-30.5899 -0.0786,-44.4512 -6.6153,1.5459 -12.7315,3.6992 -18.169,6.3496 1.7129,10.627 1.6797,22.5254 -0.4692,34.834 z"
           id="path4639" />
        <linearGradient
           id="SVGID_8_"
           gradientUnits="userSpaceOnUse"
           x1="182.2534"
           y1="153.13831"
           x2="182.2534"
           y2="213.3161">
          <stop
             offset="0"
             style="stop-color:#3E3D40"
             id="stop4641" />
          <stop
             offset="1"
             style="stop-color:#000000"
             id="stop4643" />
        </linearGradient>
        <path
           style="fill:url(#SVGID_8_);stroke:#000000;stroke-width:0.69410002;stroke-miterlimit:10"
           stroke-miterlimit="10"
           d="m 194.4482,153.1383 c -15.6059,7.6074 -25.6093,19.2901 -25.6093,32.4014 0,10.6826 6.6381,20.4199 17.5361,27.7764 3.3799,-7.6543 6.0063,-16.1914 7.604,-25.3438 2.1489,-12.3086 2.1821,-24.207 0.4692,-34.834 z"
           id="path4646" />
      </g>
      <path
         style="opacity:0.1;fill:#f6f6f6"
         d="m 306.1484,182.1784 c -0.7998,-1.8194 -1.8193,-3.5796 -3.0293,-5.2998 -5.1406,-7.2701 -13.8603,-13.5401 -24.9902,-18.1402 -7.46,-3.0796 -15.9902,-5.4096 -25.2305,-6.79 -6.2695,-0.94 -12.8496,-1.4497 -19.6596,-1.4497 -1.71,0 -3.3999,0.04 -5.0801,0.1001 -7.6402,0.29 -14.9702,1.1997 -21.8198,2.6596 -7.2701,1.5401 -14,3.7002 -19.98,6.3501 -1.0401,0.46 -2.0703,0.94 -3.0601,1.4302 3.5098,-2.8901 7.6299,-5.48 12.23,-7.7202 5.4399,-2.6499 11.5498,-4.8101 18.1699,-6.3501 6.23,-1.46 12.8902,-2.3696 19.8399,-2.6597 1.5302,-0.06 3.06,-0.1001 4.6201,-0.1001 6.1899,0 12.1704,0.5098 17.8696,1.4502 8.4004,1.3799 16.1699,3.71 22.9502,6.7896 10.1201,4.6001 18.04,10.8701 22.7197,18.1401 2.3506,3.6402 3.8809,7.5303 4.4502,11.5899 z"
         id="path4650" />
      <g
         id="g4663">
        <radialGradient
           id="SVGID_9_"
           cx="146.1346"
           cy="156.61929"
           r="37.577999"
           fx="138.7421"
           fy="148.8071"
           gradientUnits="userSpaceOnUse">
          <stop
             offset="0"
             style="stop-color:#FFEE27"
             id="stop4652" />
          <stop
             offset="0.1317"
             style="stop-color:#FFE91C"
             id="stop4654" />
          <stop
             offset="1"
             style="stop-color:#FDC800"
             id="stop4656" />
        </radialGradient>
        <ellipse
           style="fill:url(#SVGID_9_)"
           cx="156.36861"
           cy="164.43469"
           rx="43.095699"
           ry="36.882301"
           id="ellipse4659" />
        <path
           style="stroke-width:0.65731364;stroke-miterlimit:4;stroke-dasharray:none"
           d="m 113.5413,164.4188 c 0,0 0.0504,0.9814 0.145,2.8217 -0.01,0.9324 0.2488,2.0236 0.4559,3.33 0.1395,1.3203 0.6864,2.7606 1.158,4.4 0.2583,0.8137 0.672,1.6197 1.0271,2.4932 0.1913,0.4312 0.3666,0.8824 0.5829,1.3253 0.2432,0.4297 0.4917,0.8687 0.7454,1.3168 0.5177,0.89 1.0122,1.8434 1.7064,2.7167 0.3265,0.4493 0.6589,0.9067 0.997,1.372 0.1694,0.2321 0.3403,0.4661 0.5126,0.702 0.195,0.218 0.3915,0.4379 0.5897,0.6595 3.0609,3.6289 7.2628,7.1114 12.4524,9.7821 5.1772,2.6774 11.3304,4.5367 17.9764,5.0905 0.8312,0.0493 1.6711,0.0592 2.5141,0.0914 0.8329,0.005 1.7152,0.1047 2.5214,0.0322 0.8654,-0.047 1.736,-0.0942 2.6117,-0.1418 0.4362,-0.0281 0.8804,-0.038 1.3137,-0.0812 l 1.2828,-0.1843 c 0.8565,-0.1218 1.7176,-0.2443 2.5831,-0.3673 0.8614,-0.1649 1.7217,-0.3904 2.5884,-0.5833 1.751,-0.3318 3.4293,-0.9879 5.1537,-1.5226 6.7514,-2.5074 13.2487,-6.6445 18.004,-12.481 0.6414,-0.6886 1.1649,-1.4688 1.6956,-2.2445 0.5232,-0.7795 1.1155,-1.5176 1.5283,-2.3665 0.4437,-0.8288 0.9305,-1.6367 1.3578,-2.4747 l 1.1005,-2.6026 c 0.2051,-0.4265 0.3312,-0.881 0.461,-1.3342 l 0.4013,-1.3559 c 0.1276,-0.4535 0.2836,-0.9004 0.3891,-1.3592 l 0.2412,-1.394 c 0.1331,-0.9326 0.3977,-1.8496 0.3936,-2.7986 l 0.1595,-2.751 c -0.0945,-4.0458 -0.7981,-7.527 -2.1275,-11.1122 l -1.117,-2.5861 c -0.4329,-0.8319 -0.9243,-1.6334 -1.3697,-2.4569 -0.4161,-0.8426 -1.0119,-1.5742 -1.5378,-2.347 -0.5334,-0.7689 -1.0594,-1.5419 -1.7028,-2.2234 -4.7713,-5.7788 -11.2599,-9.8469 -17.9804,-12.2957 -6.786,-2.4019 -13.7937,-3.2453 -20.4799,-2.7366 -6.5202,0.5461 -12.6981,2.38 -17.8271,5.0335 -5.1601,2.6455 -9.339,6.0984 -12.3838,9.6969 -3.0676,3.5995 -4.9703,7.3158 -6.1818,10.4809 -0.4801,1.6263 -1.048,3.0486 -1.2188,4.3646 -0.2332,1.2994 -0.5141,2.3969 -0.5217,3.3137 -0.1308,1.8219 -0.2006,2.7935 -0.2006,2.7935 z m -0.5373,0.0159 c 0,0 0.046,-0.9903 0.1322,-2.8472 -0.0138,-0.9362 0.2416,-2.0597 0.4475,-3.3941 0.1437,-1.3511 0.6826,-2.8166 1.1362,-4.4977 1.1581,-3.2727 3.0168,-7.1415 6.0833,-10.9278 3.0433,-3.7846 7.2631,-7.4565 12.5308,-10.3265 5.2735,-2.8749 11.5054,-4.9474 18.4474,-5.6744 6.7684,-0.6678 14.2237,0.0285 21.3902,2.4066 7.1013,2.5229 14.0088,6.7684 19.1747,12.9216 2.5441,3.0731 4.7948,6.5132 6.1806,10.3573 1.4124,3.7512 2.1769,8.0812 2.2108,11.9064 l -0.1876,3.1345 c -0.0103,1.0255 -0.2928,2.0185 -0.4472,3.0257 l -0.2757,1.5048 c -0.1178,0.495 -0.2867,0.9773 -0.428,1.4661 l -0.4448,1.4603 c -0.1451,0.4877 -0.2873,0.9761 -0.5085,1.4346 -1.4109,3.8229 -3.6721,7.2387 -6.2253,10.2826 -5.182,6.0956 -12.0809,10.2719 -19.1513,12.7361 -1.8048,0.5199 -3.5607,1.1561 -5.3821,1.4629 -0.9037,0.1808 -1.7939,0.392 -2.6948,0.5436 -0.9116,0.109 -1.8185,0.2175 -2.7206,0.3253 l -1.3478,0.1593 c -0.4444,0.034 -0.8813,0.0338 -1.3203,0.0523 -0.8765,0.0282 -1.748,0.0562 -2.6142,0.084 -0.9254,0.0562 -1.7642,-0.0652 -2.6412,-0.089 -0.8661,-0.052 -1.7281,-0.0821 -2.5803,-0.1521 -6.8163,-0.7191 -13.073,-2.7659 -18.2985,-5.6165 -5.2384,-2.8445 -9.4354,-6.4865 -12.4627,-10.2406 -3.0389,-3.7629 -4.9098,-7.5845 -6.1042,-10.8231 -0.4621,-1.6679 -1.022,-3.1155 -1.197,-4.4623 -0.232,-1.3274 -0.5098,-2.4572 -0.5133,-3.3777 -0.1225,-1.8386 -0.1878,-2.8191 -0.1878,-2.8191 z"
           id="path4661" />
      </g>
      <g
         id="g4669">
        <ellipse
           style="fill:#ffffff"
           transform="matrix(0.9851,0.1718,-0.1718,0.9851,27.1669,-19.0514)"
           cx="123.675"
           cy="147.4623"
           rx="12.9584"
           ry="16.872"
           id="ellipse4665" />
        <path
           d="m 136.7023,149.7442 c 0,0 -0.0772,0.3593 -0.2219,1.0331 -0.0682,0.337 -0.1559,0.7525 -0.3143,1.2401 -0.1497,0.4858 -0.2923,1.0568 -0.5453,1.6566 -0.4238,1.2322 -1.1429,2.6563 -2.1328,4.1767 -1.0063,1.5066 -2.3763,3.0854 -4.2217,4.3736 -0.232,0.1584 -0.4665,0.3183 -0.7032,0.4799 -0.252,0.1374 -0.5066,0.2761 -0.7636,0.4161 -0.5018,0.305 -1.075,0.4898 -1.6326,0.7291 -1.1547,0.3586 -2.3954,0.6816 -3.6985,0.63 -0.3246,0.0241 -0.6487,-0.0178 -0.9752,-0.0548 -0.3294,-0.0488 -0.6488,-0.0398 -0.992,-0.1379 -0.315,-0.0766 -0.6318,-0.1536 -0.9505,-0.2311 -0.3186,-0.0865 -0.6384,-0.2341 -0.9599,-0.3507 -1.2582,-0.5313 -2.4616,-1.2631 -3.4633,-2.2596 -2.0483,-1.9418 -3.457,-4.6002 -4.1752,-7.4383 -0.7599,-2.8413 -0.7735,-5.8849 -0.3041,-8.8152 0.5444,-2.9006 1.593,-5.786 3.2663,-8.1942 1.6357,-2.4287 3.8605,-4.4553 6.446,-5.591 2.5649,-1.1605 5.5165,-1.2624 7.9276,-0.3757 1.2688,0.4005 2.3101,1.119 3.2814,1.8493 0.4439,0.4142 0.9212,0.7822 1.2901,1.2394 0.1944,0.2189 0.3871,0.4357 0.5778,0.6505 0.1681,0.2323 0.3346,0.4624 0.4993,0.69 1.3005,1.838 2.0547,3.788 2.4913,5.5467 0.4164,1.7662 0.6106,3.3498 0.5919,4.6528 0.0347,0.6517 -0.0243,1.2317 -0.0477,1.7368 -0.0154,0.5063 -0.074,0.9325 -0.1247,1.2777 -0.0934,0.6912 -0.1432,1.0598 -0.1432,1.0598 z m -0.5248,-0.102 c 0,0 0.0483,-0.3599 0.139,-1.0347 0.0495,-0.337 0.1069,-0.753 0.1212,-1.2469 0.0223,-0.4927 0.0805,-1.0587 0.0458,-1.6938 0.0187,-1.2706 -0.1729,-2.8125 -0.5775,-4.5286 -0.4243,-1.7085 -1.1582,-3.5981 -2.4108,-5.3658 -0.1584,-0.2191 -0.3184,-0.4404 -0.48,-0.664 -0.1831,-0.2057 -0.3681,-0.4134 -0.5547,-0.6231 -0.3536,-0.4398 -0.8104,-0.7886 -1.2335,-1.1862 -0.9165,-0.6914 -1.939,-1.3894 -3.0949,-1.7516 -2.334,-0.856 -5.0903,-0.7538 -7.5562,0.3505 -2.4739,1.0846 -4.6305,3.0389 -6.2205,5.3993 -1.6327,2.3575 -2.6438,5.1222 -3.1855,7.9856 -0.4588,2.8612 -0.4467,5.8315 0.2919,8.5933 0.6965,2.7599 2.0637,5.3303 4.0252,7.1897 0.955,0.9539 2.1178,1.6528 3.2916,2.1496 0.3017,0.1082 0.5827,0.2449 0.8961,0.3304 0.3187,0.0774 0.6356,0.1543 0.9506,0.2307 0.2816,0.0848 0.6171,0.0804 0.9198,0.1252 0.3099,0.0352 0.6175,0.0762 0.9258,0.0519 1.2367,0.0509 2.4174,-0.2605 3.5201,-0.6012 0.5331,-0.231 1.0812,-0.4048 1.5629,-0.6994 0.2467,-0.1343 0.4911,-0.2674 0.733,-0.3991 0.2278,-0.1558 0.4533,-0.3101 0.6765,-0.4628 1.7771,-1.2409 3.1067,-2.7716 4.0837,-4.2365 0.961,-1.4787 1.6624,-2.8651 2.0744,-4.0674 0.2479,-0.5875 0.3825,-1.1346 0.5277,-1.6032 0.1522,-0.4636 0.2403,-0.8798 0.3087,-1.2187 0.1444,-0.6739 0.2215,-1.0332 0.2215,-1.0332 z"
           id="path4667" />
      </g>
      <g
         id="g4673" />
      <g
         id="g4677" />
      <ellipse
         style="stroke:#000000;stroke-width:0.4745;stroke-miterlimit:10"
         stroke-miterlimit="10"
         cx="121.5215"
         cy="150.7003"
         rx="5.5493002"
         ry="8.2124004"
         id="ellipse4679" />
      <g
         id="g4689">
        <g
           id="g4683">
          <path
             d="m 123.4036,175.4623 c 0,0 0.3971,0.3748 1.1871,0.951 0.7835,0.574 1.9383,1.3588 3.4315,2.0822 1.4933,0.7078 3.3095,1.4016 5.3278,1.7149 1.0053,0.1728 2.0594,0.2291 3.1212,0.1862 1.0651,-0.0194 2.1305,-0.2253 3.179,-0.4614 1.0418,-0.2742 2.071,-0.6093 3.0354,-1.0661 0.4829,-0.2261 0.9645,-0.4441 1.4126,-0.7198 0.4572,-0.2565 0.9081,-0.5104 1.3243,-0.8102 0.8614,-0.5491 1.6307,-1.181 2.3598,-1.7743 0.7032,-0.6296 1.3743,-1.2165 1.9379,-1.8242 0.5865,-0.5812 1.0919,-1.1472 1.5601,-1.6338 0.4917,-0.4702 0.9203,-0.8801 1.2733,-1.2177 0.7274,-0.6654 1.2419,-0.9831 1.2419,-0.9831 l 0.0122,-0.007 c 0.1392,-0.0859 0.3217,-0.0428 0.4076,0.0964 0.0475,0.0769 0.0551,0.1682 0.0294,0.248 0,0 -0.1868,0.5689 -0.6866,1.4551 -0.2375,0.4524 -0.5785,0.9639 -1.0207,1.5132 -0.2256,0.2705 -0.4656,0.5583 -0.7186,0.8618 -0.2647,0.2934 -0.5723,0.5769 -0.8773,0.8861 -0.6003,0.6283 -1.3194,1.2434 -2.0737,1.8987 -0.784,0.6221 -1.6119,1.2815 -2.5464,1.8612 -0.4502,0.3134 -0.941,0.5831 -1.4391,0.8537 -0.4872,0.289 -1.0142,0.5215 -1.5427,0.7597 -1.0552,0.4811 -2.188,0.8362 -3.3356,1.1193 -1.1628,0.2176 -2.3394,0.3888 -3.5044,0.3651 -1.1614,-5e-4 -2.3034,-0.1104 -3.3793,-0.34 -2.165,-0.417 -4.0564,-1.2485 -5.559,-2.1093 -1.5065,-0.8648 -2.6538,-1.7425 -3.4096,-2.4078 -0.755,-0.6608 -1.146,-1.1012 -1.146,-1.1012 l -0.005,-0.005 c -0.103,-0.116 -0.0924,-0.2935 0.0236,-0.3965 0.1093,-0.0973 0.2744,-0.0925 0.3791,0.006 z"
             id="path4681" />
        </g>
        <g
           id="g4687">
          <path
             d="m 150.0639,168.4475 c 0,0 0.5356,-0.0707 1.2691,0.0729 0.3692,0.0697 0.7881,0.1923 1.2258,0.3694 0.4351,0.1799 0.8802,0.4283 1.299,0.7334 0.4183,0.3026 0.8016,0.681 1.1023,1.0883 0.2964,0.4202 0.4867,0.8798 0.5917,1.2851 0.0787,0.4253 0.0985,0.7697 0.0385,1.0225 -0.0384,0.2449 -0.0876,0.3759 -0.0876,0.3759 -0.0623,0.166 -0.2475,0.2501 -0.4135,0.1877 -0.0367,-0.0138 -0.0693,-0.0335 -0.0973,-0.0577 l -0.0432,-0.0377 c 0,0 -0.1059,-0.0924 -0.2437,-0.2383 -0.0791,-0.0703 -0.1346,-0.161 -0.2396,-0.2488 -0.1068,-0.0862 -0.1986,-0.188 -0.3015,-0.2906 -0.126,-0.0938 -0.232,-0.2079 -0.353,-0.3163 -0.1307,-0.1053 -0.2675,-0.2171 -0.39,-0.3411 -0.2821,-0.2305 -0.5612,-0.4961 -0.8753,-0.7544 -0.6563,-0.55 -1.3126,-1.1 -1.8048,-1.5125 -0.5201,-0.4409 -0.8595,-0.8069 -0.8595,-0.8069 l -0.006,-0.007 c -0.1178,-0.127 -0.1103,-0.3255 0.0167,-0.4433 0.0496,-0.0458 0.1099,-0.0727 0.1722,-0.0808 z"
             id="path4685" />
        </g>
      </g>
      <g
         id="g4695">
        <path
           style="fill:#f6f6f6"
           d="m 218.3901,155.0104 c 0,0 39.8072,-101.3384 90.1216,-71.7788 50.3145,29.5596 -72.3271,73.5849 -78.6162,74.2139"
           id="path4691" />
        <path
           d="m 218.3456,154.9928 c 0,0 0.3712,-0.9574 1.0674,-2.7524 0.7159,-1.787 1.7838,-4.4027 3.2693,-7.6769 1.4817,-3.2755 3.3431,-7.2275 5.6417,-11.682 2.2871,-4.4601 5.0374,-9.4104 8.3197,-14.6458 3.2797,-5.2344 7.0695,-10.7751 11.5537,-16.2882 4.4679,-5.5158 9.719,-10.9702 15.9872,-15.6535 3.1245,-2.3463 6.5555,-4.426 10.2464,-6.1086 3.6969,-1.6541 7.6994,-2.8687 11.8562,-3.3037 2.0749,-0.2582 4.1829,-0.2259 6.2835,-0.1131 2.093,0.2069 4.1943,0.4967 6.2299,1.069 4.1011,1.0515 7.9416,2.9241 11.4966,5.1456 3.526,2.2207 6.9569,4.982 9.235,8.7281 1.1328,1.8613 1.9051,4.0031 2.0991,6.2103 0.2032,2.2054 -0.1415,4.4211 -0.8517,6.438 -0.7076,2.025 -1.7324,3.8773 -2.8876,5.594 -1.1498,1.7262 -2.4704,3.2935 -3.8488,4.7709 -2.7589,2.9599 -5.7933,5.5283 -8.8824,7.8834 -6.2075,4.6833 -12.6619,8.4948 -18.8755,11.8789 -6.2266,3.3691 -12.2543,6.2669 -17.8721,8.8108 -5.6169,2.5479 -10.86,4.6631 -15.5228,6.4864 -4.6662,1.8168 -8.7703,3.3033 -12.1682,4.4739 -3.3978,1.1712 -6.1001,1.9957 -7.953,2.519 -0.9265,0.2617 -1.6427,0.4419 -2.1298,0.5445 -0.4856,0.1099 -0.7433,0.1284 -0.7433,0.1284 -0.002,2e-4 -0.004,-0.002 -0.005,-0.004 -2e-4,-0.002 0.002,-0.004 0.004,-0.005 0,0 0.2555,-0.0286 0.7354,-0.1574 0.4811,-0.1214 1.1883,-0.3295 2.1022,-0.6273 1.8306,-0.5868 4.4838,-1.5442 7.8413,-2.8089 3.3561,-1.2688 7.4074,-2.8737 12.0074,-4.8237 4.606,-1.9356 9.7383,-4.2665 15.2996,-6.8765 5.5488,-2.6356 11.4952,-5.6297 17.6143,-9.0866 6.1105,-3.4613 12.415,-7.3849 18.4406,-12.0492 3.012,-2.3253 5.9525,-4.8511 8.5774,-7.7044 2.6246,-2.8306 4.9562,-6.0507 6.2213,-9.6453 0.6191,-1.7938 0.8889,-3.684 0.7076,-5.534 -0.176,-1.8515 -0.8289,-3.6452 -1.827,-5.2634 -1.0008,-1.6188 -2.2928,-3.0876 -3.7537,-4.4012 -0.7531,-0.6284 -1.5027,-1.2893 -2.3058,-1.8486 -0.7947,-0.5685 -1.5867,-1.1404 -2.4871,-1.6704 -6.7595,-4.2549 -14.7441,-6.6542 -22.543,-5.7797 -3.8857,0.3795 -7.6634,1.4933 -11.1938,3.0441 -3.5246,1.5792 -6.8382,3.5515 -9.8796,5.8047 -6.1084,4.4908 -11.2625,9.8262 -15.8093,15.1374 -4.5324,5.3394 -8.403,10.7486 -11.7657,15.8744 -3.3586,5.132 -6.1968,9.9957 -8.6511,14.3411 -2.4406,4.3544 -4.4316,8.2289 -6.0216,11.4438 -3.1714,6.4357 -4.7698,10.2179 -4.7698,10.2179 -0.01,0.0245 -0.0377,0.0363 -0.0622,0.0265 -0.0243,-0.01 -0.0358,-0.0373 -0.027,-0.0615 z"
           id="path4693" />
      </g>
      <g
         id="g4701">
        <path
           style="fill:#f6f6f6"
           d="m 222.1973,154.9582 c 0,0 12.0092,-9.2466 26.4755,-28.1143"
           id="path4697" />
      </g>
      <g
         id="g4707">
        <path
           style="fill:#f6f6f6"
           d="m 226.229,155.8996 c 0,0 22.2397,-9.2398 32.9321,-21.1895"
           id="path4703" />
      </g>
      <ellipse
         style="fill:#ffffff"
         cx="124.2359"
         cy="146.9464"
         rx="1.9433"
         ry="2.6343"
         id="ellipse4709" />
      <g
         id="g4715">
        <ellipse
           style="fill:#ffffff"
           transform="matrix(0.9851,0.1718,-0.1718,0.9851,26.7344,-22.1495)"
           cx="141.364"
           cy="143.4174"
           rx="16.557899"
           ry="21.557301"
           id="ellipse4711" />
        <path
           d="m 158.2206,146.3784 c 0,0 -0.1022,0.4584 -0.2939,1.3179 -0.0905,0.429 -0.2065,0.9592 -0.4159,1.5897 -0.1976,0.6258 -0.3882,1.3617 -0.719,2.13 -0.1537,0.3895 -0.3155,0.7999 -0.4853,1.2303 -0.203,0.416 -0.4155,0.8513 -0.637,1.305 -0.2076,0.4607 -0.4747,0.9136 -0.7573,1.3803 -0.2827,0.4661 -0.5477,0.9659 -0.9028,1.4314 -1.3073,1.9256 -3.0828,3.9377 -5.4613,5.5735 -0.2983,0.2019 -0.5997,0.4059 -0.9041,0.612 -0.3239,0.175 -0.6511,0.3517 -0.9814,0.5301 -0.6448,0.3884 -1.3811,0.6232 -2.097,0.9271 -0.3648,0.1355 -0.7523,0.2173 -1.1321,0.3292 -0.3813,0.1098 -0.7662,0.2172 -1.1692,0.2582 -0.3988,0.0586 -0.8007,0.1177 -1.2055,0.1772 -0.4094,0.008 -0.8217,0.0167 -1.2368,0.0251 -0.4159,0.0293 -0.831,-0.026 -1.2489,-0.0749 -0.4221,-0.0642 -0.8294,-0.054 -1.2705,-0.1816 -0.402,-0.0994 -0.8065,-0.1993 -1.2134,-0.2999 -0.407,-0.1123 -0.8166,-0.3027 -1.2273,-0.4534 -1.6105,-0.6831 -3.1356,-1.6335 -4.4229,-2.8986 -2.6301,-2.4692 -4.4501,-5.8627 -5.3873,-9.4933 -0.9907,-3.6347 -1.0276,-7.5352 -0.4433,-11.297 0.2212,-0.9552 0.3372,-1.845 0.63,-2.7776 l 0.4045,-1.3846 c 0.1491,-0.4549 0.3322,-0.894 0.4969,-1.3412 0.3065,-0.9036 0.765,-1.7417 1.1565,-2.6057 0.2224,-0.4189 0.4681,-0.8251 0.7009,-1.2372 0.2259,-0.4167 0.4756,-0.8179 0.7546,-1.2 2.0873,-3.1366 4.9395,-5.7697 8.2837,-7.2615 3.3104,-1.5258 7.1782,-1.6784 10.3073,-0.5458 0.4053,0.1539 0.8079,0.3068 1.2076,0.4586 0.3682,0.196 0.7337,0.3905 1.0965,0.5836 0.3727,0.1784 0.7053,0.4129 1.0334,0.6489 0.326,0.2374 0.6695,0.4496 0.9728,0.7043 0.5797,0.5389 1.1989,1.0231 1.6787,1.6179 0.2524,0.2855 0.5024,0.5683 0.75,0.8483 0.218,0.3023 0.4338,0.6017 0.6474,0.8979 1.6839,2.392 2.6572,4.9184 3.2136,7.195 0.1692,0.5644 0.242,1.1294 0.3428,1.6682 0.1005,0.5392 0.1913,1.0596 0.2235,1.5665 0.0476,0.5047 0.0932,0.9889 0.1369,1.4515 0.007,0.4642 0.0142,0.9068 0.0208,1.3269 0.0387,0.8406 -0.042,1.5877 -0.0766,2.2384 -0.0244,0.6522 -0.1035,1.2006 -0.1718,1.6447 -0.1263,0.889 -0.1937,1.3632 -0.1937,1.3632 z m -1.0938,-0.2127 c 0,0 0.058,-0.4567 0.1667,-1.313 0.0598,-0.4275 0.1288,-0.9551 0.1423,-1.581 0.0237,-0.6244 0.0927,-1.3415 0.0427,-2.145 -0.0118,-0.4015 -0.0242,-0.8246 -0.0372,-1.2682 -0.0482,-0.4408 -0.0986,-0.902 -0.1512,-1.3828 -0.0366,-0.4831 -0.131,-0.977 -0.2342,-1.4881 -0.1035,-0.5106 -0.1784,-1.0473 -0.3479,-1.5789 -0.5436,-2.1535 -1.4718,-4.5331 -3.0499,-6.7482 -0.1992,-0.2745 -0.4005,-0.5519 -0.6039,-0.8321 -0.2301,-0.2571 -0.4624,-0.5168 -0.697,-0.7789 -0.4434,-0.5514 -1.0175,-0.9832 -1.5457,-1.4814 -0.2744,-0.2368 -0.5856,-0.4304 -0.8799,-0.6515 -0.2961,-0.2195 -0.5962,-0.4388 -0.9329,-0.602 -0.3271,-0.1799 -0.6567,-0.3612 -0.9886,-0.5438 -0.3427,-0.1352 -0.6879,-0.2714 -1.0354,-0.4085 -2.9337,-1.0943 -6.3591,-0.9863 -9.4767,0.3817 -3.1205,1.3452 -5.8666,3.7984 -7.9009,6.7809 -0.2721,0.3621 -0.5161,0.7439 -0.7372,1.1419 -0.2279,0.3932 -0.4693,0.7801 -0.6881,1.1803 -0.3853,0.8272 -0.8385,1.6282 -1.1412,2.498 -0.7226,1.6884 -1.1482,3.4827 -1.5348,5.3066 -0.6015,3.6382 -0.6054,7.4218 0.3187,10.9463 0.8705,3.5222 2.5974,6.8095 5.0908,9.1972 1.213,1.2271 2.7112,2.1048 4.208,2.7353 0.3856,0.1365 0.7437,0.3092 1.1442,0.4169 0.4076,0.0973 0.8129,0.1939 1.2158,0.2901 0.3571,0.1063 0.7867,0.0992 1.1722,0.1548 0.3951,0.0433 0.7873,0.0941 1.1801,0.0615 0.3918,-0.0107 0.781,-0.0213 1.1674,-0.0319 0.3822,-0.0598 0.7616,-0.1191 1.1382,-0.1779 0.3802,-0.0402 0.744,-0.146 1.1044,-0.2535 0.359,-0.1096 0.7249,-0.188 1.07,-0.3197 0.6776,-0.297 1.3741,-0.5205 1.986,-0.8982 0.3133,-0.1721 0.6236,-0.3427 0.9309,-0.5115 0.2892,-0.1995 0.5754,-0.397 0.8588,-0.5925 2.2502,-1.5957 3.924,-3.5567 5.1511,-5.4276 0.3345,-0.4513 0.5811,-0.9382 0.8459,-1.3905 0.2647,-0.4528 0.5149,-0.8917 0.7071,-1.3393 0.2062,-0.4397 0.4041,-0.8616 0.5931,-1.2646 0.1566,-0.4171 0.3059,-0.8147 0.4476,-1.1921 0.3091,-0.7489 0.4731,-1.4414 0.6522,-2.0351 0.1875,-0.5849 0.2961,-1.1175 0.3802,-1.552 0.1779,-0.8625 0.2727,-1.3224 0.2727,-1.3224 z"
           id="path4713" />
      </g>
      <ellipse
         style="stroke:#000000;stroke-width:0.56150001;stroke-miterlimit:10"
         stroke-miterlimit="10"
         cx="140.4561"
         cy="149.0392"
         rx="6.5672998"
         ry="9.7182999"
         id="ellipse4717" />
      <ellipse
         style="fill:#ffffff"
         cx="144.6507"
         cy="143.8629"
         rx="3.0545001"
         ry="4.1402001"
         id="ellipse4719" />
      <linearGradient
         id="SVGID_10_"
         gradientUnits="userSpaceOnUse"
         x1="164.5629"
         y1="212.5748"
         x2="198.271"
         y2="212.5748">
        <stop
           offset="0"
           style="stop-color:#FFEE27"
           id="stop4721" />
        <stop
           offset="0.1425"
           style="stop-color:#FFE612"
           id="stop4723" />
        <stop
           offset="0.4575"
           style="stop-color:#FFD600"
           id="stop4725" />
        <stop
           offset="0.7511"
           style="stop-color:#FECC00"
           id="stop4727" />
        <stop
           offset="1"
           style="stop-color:#FDC800"
           id="stop4729" />
      </linearGradient>
      <g
         id="g4738">
        <path
           d="m 166.3297,97.0367 c 0,0 -0.008,0.1255 -0.0226,0.3607 -0.015,0.2239 -0.0701,0.6443 -0.2076,1.0816 -0.2627,0.8903 -0.9628,2.1524 -2.3508,2.9817 -0.6826,0.4116 -1.5111,0.7155 -2.4182,0.8105 -0.2311,0.0155 -0.4473,0.0305 -0.7005,0.0267 -0.2241,-0.0157 -0.4371,-0.0111 -0.6867,-0.0567 -0.4922,-0.0551 -0.9502,-0.2018 -1.4158,-0.3799 -0.9135,-0.3868 -1.7675,-1.0131 -2.388,-1.8633 -0.6184,-0.8559 -0.9769,-1.8895 -0.9851,-2.997 0.004,-0.4791 0.0854,-1.0657 0.2417,-1.5656 0.1708,-0.5072 0.413,-0.9854 0.7131,-1.42 0.6142,-0.8622 1.4657,-1.5152 2.3922,-1.9053 0.9225,-0.3833 1.9372,-0.5105 2.821,-0.4247 0.9518,0.0973 1.7715,0.3978 2.4701,0.8192 1.3974,0.8589 2.0881,2.1435 2.3331,3.0443 0.131,0.4559 0.1745,0.8291 0.1883,1.081 0.0108,0.2531 0.0165,0.3881 0.0165,0.3881 z m -0.7147,-0.019 c 0,0 -0.008,-0.1161 -0.0219,-0.3337 -0.0158,-0.2164 -0.0601,-0.5354 -0.18,-0.9228 -0.2307,-0.7619 -0.8235,-1.8566 -2.0349,-2.5892 -0.5837,-0.3696 -1.333,-0.6463 -2.1009,-0.7392 -0.8335,-0.0923 -1.6799,0.0101 -2.5071,0.3313 -0.8171,0.3297 -1.573,0.8911 -2.1229,1.6378 -0.2668,0.3775 -0.4835,0.7926 -0.6393,1.2336 -0.1413,0.4581 -0.2138,0.8715 -0.2296,1.3988 0.007,0.4374 0.0755,0.9292 0.2115,1.3714 0.1504,0.4448 0.3627,0.8655 0.6265,1.2497 0.5435,0.7586 1.297,1.3466 2.1273,1.6795 0.4138,0.1543 0.8486,0.2873 1.2607,0.328 0.1975,0.0392 0.4356,0.0351 0.6537,0.0481 0.1894,2e-4 0.4117,-0.0147 0.6107,-0.03 0.8126,-0.0951 1.5532,-0.368 2.153,-0.7473 1.221,-0.7619 1.8045,-1.8792 2.0173,-2.6516 0.1134,-0.4061 0.146,-0.6779 0.1606,-0.9222 0.0103,-0.2355 0.0157,-0.3611 0.0157,-0.3611 z"
           id="path4736" />
      </g>
      <g
         id="g4744" />
    </g>
  </g>
</svg>
